<?xml version="1.0" encoding="utf-8"?><!-- Uploaded to: SVG Repo, www.svgrepo.com, Generator: SVG Repo Mixer Tools -->
<svg fill="#000000" width="800px" height="800px" viewBox="0 0 24 24" xmlns="http://www.w3.org/2000/svg" id="umbrella" class="icon glyph">
<defs>
    <linearGradient id="MyGradient" x1="35%" y1="0%" x2="65%" y2="100%">
		<stop offset="0%" style="stop-color:#dc4" />
		<stop offset="20%" style="stop-color:#14b8a6" />
		<stop offset="100%" style="stop-color:#3b82f6" />
    </linearGradient>
</defs>
<filter id="dropshadow" height="130%">
  <feGaussianBlur in="SourceAlpha" stdDeviation="1"/> <!-- stdDeviation is how much to blur -->
  <feOffset dx="0.2" dy="0.5" result="offsetblur"/> <!-- how much to offset -->
  <feComponentTransfer>
    <feFuncA type="linear" slope="0.4"/> <!-- slope is the opacity of the shadow -->
  </feComponentTransfer>
  <feMerge> 
    <feMergeNode/> <!-- this contains the offset blurred image -->
    <feMergeNode in="SourceGraphic"/> <!-- this contains the element that the filter is applied to -->
  </feMerge>
</filter>
<path class="sfp2"  fill="url(#MyGradient)"  style="filter: url(#dropshadow)" d="M12,2a9,9,0,0,0-9,9,1,1,0,0,0,1,1h7v7a1,1,0,0,1-2,0,1,1,0,0,0-2,0,3,3,0,0,0,6,0V12h7a1,1,0,0,0,1-1A9,9,0,0,0,12,2Z"></path>

</svg>